<svg xmlns="http://www.w3.org/2000/svg" xmlns:xlink="http://www.w3.org/1999/xlink" width="118" height="472" viewBox="0 0 118 472"><svg width="118" height="118" viewBox="-10 -10 118 118"><path clip-rule="evenodd" fill="none" stroke="#FFF" stroke-width="2" stroke-linecap="round" stroke-linejoin="round" stroke-miterlimit="10" d="M49 1c26.51 0 48 21.49 48 48S75.51 97 49 97 1 75.51 1 49 22.49 1 49 1z"/><path fill="none" stroke="#FFF" stroke-width="2" stroke-linecap="round" stroke-linejoin="round" stroke-miterlimit="10" d="M26.333 18.083h45.333V82.43H26.333z"/><path fill="none" stroke="#FFF" stroke-width="2" stroke-linecap="round" stroke-linejoin="round" stroke-miterlimit="10" d="M31.14 64.888h35.72v10.195H31.14zm25.72-22.985H31.14V31.708h25.72M36.807 69.986h24.386"/><path fill="none" stroke="#FFF" stroke-width="2" stroke-linecap="round" stroke-linejoin="round" stroke-miterlimit="10" d="M55.678 35.101l4.055 4.248 6.975-11.556M56.86 57.311H31.14V47.116h25.72"/><path fill="none" stroke="#FFF" stroke-width="2" stroke-linecap="round" stroke-linejoin="round" stroke-miterlimit="10" d="M55.678 50.51l4.055 4.248 6.975-11.556M26.333 23.93h45.334"/></svg><svg width="118" height="118" viewBox="-10 -10 118 118" y="118"><path clip-rule="evenodd" fill="none" stroke="#FFF" stroke-width="2" stroke-linecap="round" stroke-linejoin="round" stroke-miterlimit="10" d="M49 1c26.51 0 48 21.49 48 48S75.51 97 49 97 1 75.51 1 49 22.49 1 49 1z"/><path fill="none" stroke="#FFF" stroke-width="2" stroke-linecap="round" stroke-linejoin="round" stroke-miterlimit="10" d="M57.026 68.077l.632 9.762c6.728 1.198 11.339 3.111 15.943 12.384M40.939 68.077l-.632 9.762c-6.728 1.198-11.339 3.111-15.943 12.384m41.705-69.668c-2.265-3.065-5.209-4.912-5.21-4.912-4.698-3.431-17.229-4.088-23.915 0 0 0-2.944 1.847-5.209 4.912-7.975 10.789-3.317 33.783 4.562 42.563 1.556 1.733 5.017 5.591 10.583 6.833.755.168 3.288.168 4.043 0 5.566-1.242 9.028-5.1 10.583-6.833 7.879-8.78 12.537-31.774 4.563-42.563z"/><path fill="none" stroke="#FFF" stroke-width="2" stroke-linecap="round" stroke-linejoin="round" stroke-miterlimit="10" d="M64.34 18.537a35.803 35.803 0 0 1-7.6 7.531c-9.644 7.018-20.252 7.17-24.953 7.174a49.335 49.335 0 0 1-11.229-1.292m35.291-4.833a28.593 28.593 0 0 0 7.568 5.1c4.895 2.264 9.374 2.671 11.994 2.712m-39.177 6.608c.11-.21 1.045-1.924 3-2.25 1.709-.285 3.491.609 4.417 2.25m9.533 0c.11-.21 1.045-1.924 3-2.25 1.709-.285 3.491.609 4.417 2.25M45.193 56.439c.11.21 1.045 1.924 3 2.25 1.709.285 3.491-.609 4.417-2.25m32.233-27.454h-8.572m4.286-3.913v8.571"/><path fill="none" stroke="#FFF" stroke-width="2" stroke-linecap="round" stroke-linejoin="round" stroke-miterlimit="10" d="M33.003 79.707a35.801 35.801 0 0 1-6.141-8.762C21.571 60.255 23.211 49.774 24 45.14a49.38 49.38 0 0 1 3.167-10.85m36.96 45.417a35.801 35.801 0 0 0 6.141-8.762c5.291-10.69 3.651-21.172 2.862-25.806a49.38 49.38 0 0 0-3.167-10.85m-47.67 25.719h-11.5m5.75-5.25v11.5m63.954 3.319h-11.5m5.75-5.25v11.5"/></svg><svg width="118" height="118" viewBox="-10 -10 118 118" y="236"><path fill="none" stroke="#FFF" stroke-width="2" stroke-linecap="round" stroke-linejoin="round" stroke-miterlimit="10" d="M32.375 47.679c.689 2.693 4.022 12.86 11.855 12.86M28.814 33.138c0-11.161 9.048-20.208 20.208-20.208S69.23 21.978 69.23 33.138"/><path clip-rule="evenodd" fill="none" stroke="#FFF" stroke-width="2" stroke-linecap="round" stroke-linejoin="round" stroke-miterlimit="10" d="M49 1c26.51 0 48 21.49 48 48S75.51 97 49 97 1 75.51 1 49 22.49 1 49 1z"/><path fill="none" stroke="#FFF" stroke-width="2" stroke-linecap="round" stroke-linejoin="round" stroke-miterlimit="10" d="M65.412 32.417l3.684.824a2.84 2.84 0 0 1 2.153 3.393l-1.988 8.892a2.84 2.84 0 0 1-3.393 2.153l-3.684-.824M32.831 32.417l-3.684.824a2.84 2.84 0 0 0-2.153 3.393l1.988 8.892a2.84 2.84 0 0 0 3.393 2.153l3.684-.824"/><path fill="none" stroke="#FFF" stroke-width="2" stroke-linecap="round" stroke-linejoin="round" stroke-miterlimit="10" d="M65.114 33.797c0 8.887-6.008 21.241-16.092 21.241S32.93 42.684 32.93 33.797s7.205-16.092 16.092-16.092 16.092 7.205 16.092 16.092z"/><path fill="none" stroke="#FFF" stroke-width="2" stroke-linecap="round" stroke-linejoin="round" stroke-miterlimit="10" d="M33.981 36.372s14.566 1.917 19.691-9.333c2.967 4.5 4.855 8 11.059 7M51.564 63.205h-4.667a2.675 2.675 0 0 1-2.667-2.667c0-1.467 1.2-2.667 2.667-2.667h4.667c1.467 0 2.667 1.2 2.667 2.667 0 1.467-1.2 2.667-2.667 2.667zm5.5-11l.632 9.762c6.728 1.198 13.896 4.674 21.465 23.966M41.373 52.205l-.632 9.762c-6.728 1.198-13.896 4.674-21.465 23.966"/></svg><svg width="118" height="118" viewBox="-10 -10 118 118" y="354"><path clip-rule="evenodd" fill="none" stroke="#FFF" stroke-width="2" stroke-linecap="round" stroke-linejoin="round" stroke-miterlimit="10" d="M49 1c26.51 0 48 21.49 48 48S75.51 97 49 97 1 75.51 1 49 22.49 1 49 1z"/><path clip-rule="evenodd" fill="none" stroke="#FFF" stroke-width="2" stroke-linecap="round" stroke-linejoin="round" stroke-miterlimit="10" d="M79.87 78.934l-34.416-6.699s-15.842-4.218-18.822-5.978c-2.98-1.76-13.972-6.099-14.648-6.775-.676-.676-.612-5.617 5.374-4.857 3.648.463 8.718 2.378 10.746 3.505 6.643.738 8.095.171 11.846 2.516"/><path clip-rule="evenodd" fill="none" stroke="#FFF" stroke-width="2" stroke-linecap="round" stroke-linejoin="round" stroke-miterlimit="10" d="M79.515 65.165c.991-2.363 4.991-5.131 3.991 1.753s-4.875 17.134-8.25 17.134c-2.25 0-1.555-4.734-.84-6.18m8.257-15.308l11.657 2.25M75.257 84.053l3.438 2.102M30.177 29.848h15.61v6.16h-15.61zm20.5 0h16.5v6.16h-16.5zm15 26.15v-19.99h-15m-4.89 0h-14.11v22.45"/><path clip-rule="evenodd" fill="none" stroke="#FFF" stroke-width="2" stroke-linecap="round" stroke-linejoin="round" stroke-miterlimit="10" d="M45.787 29.178h4.89v27.21h-4.89zm-14.11 13.61h14.11v4.45h-14.11z"/><path clip-rule="evenodd" fill="none" stroke="#FFF" stroke-width="2" stroke-linecap="round" stroke-linejoin="round" stroke-miterlimit="10" d="M50.677 42.788h15v4.45h-15zm-3.004-13.61c-5.833 0-11.083-5.25-8.583-8.167s8.583 2.917 8.583 8.167zm.559 0c5.833 0 11.083-5.25 8.583-8.167s-8.583 2.917-8.583 8.167zm35.275 37.74l-6.394-2.929c-1.014-5.408-6.431-7.599-9.919-7.599H43.426c-3.155 0-6.309 5.12 0 6.472 6.309 1.352 16.224-.451 20.28 4.056"/></svg></svg>